<?xml version="1.0" encoding="iso-8859-1"?>
<!-- Uploaded to: SVG Repo, www.svgrepo.com, Generator: SVG Repo Mixer Tools -->
<svg version="1.1" id="Layer_1" xmlns="http://www.w3.org/2000/svg" xmlns:xlink="http://www.w3.org/1999/xlink" 
	 viewBox="0 0 512 512" xml:space="preserve">
<path style="fill:#715539;" d="M400.103,0h-96.069h-96.068h-96.069C103.239,0,96.22,7.019,96.22,15.676v113.703v113.707v93.348
	c0,8.657,7.019,15.676,15.676,15.676c1.237,0,2.434-0.158,3.589-0.428l300.296-35.887v-27.397v-8.367v-36.945V129.378V15.676
	C415.779,7.019,408.761,0,400.103,0z"/>
<g>
	<rect x="319.713" y="31.352" style="fill:#9F7953;" width="64.718" height="82.35"/>
	<rect x="223.641" y="31.352" style="fill:#9F7953;" width="64.718" height="82.35"/>
	<rect x="127.569" y="31.352" style="fill:#9F7953;" width="64.718" height="82.35"/>
	<rect x="127.569" y="145.053" style="fill:#9F7953;" width="64.718" height="82.361"/>
	<rect x="223.641" y="145.053" style="fill:#9F7953;" width="64.718" height="82.361"/>
	<rect x="319.713" y="145.053" style="fill:#9F7953;" width="64.718" height="82.361"/>
	<path style="fill:#9F7953;" d="M384.427,258.761h-64.718V301.3l64.892-9.791c-0.103-0.726-0.174-1.462-0.174-2.218V258.761z"/>
	<path style="fill:#9F7953;" d="M288.359,258.761h-64.718v57.033l64.769-9.772c-0.022-0.338-0.051-0.674-0.051-1.018
		L288.359,258.761L288.359,258.761z"/>
	<polygon style="fill:#9F7953;" points="127.572,258.761 127.572,330.289 192.289,320.524 192.289,258.761 	"/>
</g>
<path style="fill:#7CC8F0;" d="M420.244,512H91.756c-7.167,0-12.977-7.019-12.977-15.676v-151.01c0-7.681,4.607-14.23,10.883-15.47
	l328.488-64.906c3.761-0.744,7.598,0.547,10.499,3.525c2.902,2.978,4.574,7.346,4.574,11.946v215.916
	C433.222,504.981,427.411,512,420.244,512z"/>
<path style="opacity:0.15;enable-background:new    ;" d="M428.648,268.463c-2.901-2.979-6.737-4.269-10.499-3.525l-2.37,0.468
	v-22.321V129.378V15.676C415.779,7.019,408.76,0,400.103,0h-96.069h-48.035v512h164.244c7.167,0,12.977-7.019,12.977-15.676V280.408
	C433.222,275.809,431.55,271.441,428.648,268.463z"/>
</svg>